# Blender v2.76 (sub 0) OBJ File: 'Asteroid-1.blend'
# www.blender.org
o Asteroid-n1-lp
v -1.772748 3.017236 2.438159
v -0.429796 3.253118 2.506473
v -0.344721 3.940045 1.495386
v 0.879897 4.225723 0.722049
v 1.729330 3.793020 1.390213
v 1.544140 4.338840 0.088435
v -3.697611 0.797565 -1.700910
v -3.312038 2.274989 -1.478300
v -3.042146 1.264202 -2.780219
v 0.287729 4.446396 -0.410019
v 2.366239 4.342441 -1.869353
v -0.327724 4.170150 -2.233807
v 3.094273 2.953335 -3.745096
v 3.707343 2.949161 -2.420444
v 4.017149 0.457015 -3.145627
v -4.121072 0.580271 -0.464354
v -3.961912 -1.577156 -0.105495
v 0.656443 3.255140 2.579264
v -2.619654 3.423811 -0.374712
v -3.585700 1.950753 -0.076506
v -4.193974 -0.176686 0.602102
v 3.839158 -0.754571 1.654989
v 4.208868 0.523884 0.751053
v 3.716356 0.260800 1.879425
v 4.133062 -0.399319 0.756899
v -3.370117 1.572804 1.907047
v -3.800146 1.709197 0.826416
v 2.770013 4.173642 -0.864102
v 2.661790 3.445101 0.799225
v 3.965280 2.706284 -0.151311
v -3.815493 0.143631 1.761841
v -1.729764 1.409538 3.703301
v -3.108306 -0.797969 2.606999
v -2.356195 -0.750124 3.543462
v -3.229059 -1.605398 2.095645
v -3.485976 -2.105588 1.040992
v -3.014935 -2.950650 0.129367
v -3.605195 -2.092657 -0.880373
v -2.787930 -2.770837 -1.133981
v -0.766956 4.174272 -1.068234
v -1.382827 3.898918 0.763321
v -2.795387 2.860837 0.570145
v -0.636394 2.165532 3.660634
v 2.169383 2.403692 2.953039
v -2.506249 -1.933532 -2.745611
v -3.267131 -1.467547 -2.144175
v -2.635854 -0.474736 -3.372804
v 2.630971 0.094917 3.494812
v 0.713414 1.576894 4.085524
v 1.905884 -0.144135 3.823514
v -0.126943 -3.331876 -2.409325
v 1.016448 -4.200796 -0.415578
v -1.234262 -3.463453 -1.950705
v -2.066118 -2.973420 -1.942989
v 2.738471 0.766472 2.579100
v -1.067501 -2.733077 -2.944066
v -1.681014 -1.908433 -3.561539
v -2.284722 2.768787 -2.807817
v -0.849886 0.841043 -4.597844
v -3.228247 -0.514033 -2.166154
v 3.477585 3.437222 -1.240900
v 4.412273 1.638322 -1.534175
v -0.765238 -0.791473 -4.323970
v 0.848350 0.104453 -4.902785
v 3.822282 -1.080053 -2.227084
v 3.097585 -1.579713 -2.890501
v 0.664714 2.556813 -4.774191
v 3.561129 -1.969115 -1.215405
v 4.403331 0.516560 -1.743327
v 1.978569 0.643549 -4.864292
v 1.904752 -2.534679 -2.798123
v 1.248855 -3.105900 -2.319179
v 0.455880 -2.455508 -3.427582
v 3.858041 -1.774928 0.362224
v 3.027367 -2.522507 -0.471647
v 2.274355 -3.525166 0.803568
v 2.245651 -3.280802 -1.616665
v -0.725945 2.994805 -4.258596
v 2.832161 -0.930372 -3.884461
v 0.660934 -1.687216 -4.242177
v 1.693175 -3.935919 -0.157778
v 1.216263 3.937445 -3.542640
v 1.472329 -3.416062 1.921945
v 2.215326 -2.539555 2.626979
v 0.242704 -3.154027 2.774244
v 0.896092 -4.003698 0.926674
v 1.529567 -2.366098 3.238991
v 0.356433 -2.558847 3.311187
v -0.643496 -4.072462 1.109062
v -1.007964 -3.984942 -0.735740
v 1.866317 -0.519951 -4.474494
v -0.968401 -3.620566 1.942547
v -2.344020 -3.426016 0.474487
v -2.241130 -2.189169 2.872714
v 2.002028 2.269203 -4.856607
v 3.000839 1.413004 -4.558871
v 2.906794 -1.367005 2.879203
v 3.054285 -2.420643 1.863402
v 3.098297 2.333019 1.830472
v -0.346915 -0.040511 4.237250
v -0.771107 -1.062721 4.030138
v -0.994890 -2.565218 3.085982
vt 0.824206 0.487802
vt 0.801253 0.419801
vt 0.853103 0.392717
vt 0.855877 0.327983
vt 0.812359 0.315730
vt 0.860747 0.291844
vt 0.198410 0.265549
vt 0.153203 0.244104
vt 0.205314 0.223942
vt 0.911495 0.318603
vt 0.887880 0.217927
vt 0.999898 0.275316
vt 0.879642 0.126443
vt 0.841074 0.163813
vt 0.783251 0.092763
vt 0.185723 0.303270
vt 0.236242 0.338974
vt 0.782782 0.374733
vt 0.086633 0.245613
vt 0.137926 0.292391
vt 0.191696 0.341081
vt 0.665409 0.219213
vt 0.717040 0.208021
vt 0.691972 0.240696
vt 0.688617 0.196051
vt 0.120455 0.364620
vt 0.015369 0.374487
vt 0.134256 0.324424
vt 0.852756 0.236709
vt 0.805042 0.274935
vt 0.790732 0.218989
vt 0.169521 0.370918
vt 0.086584 0.455811
vt 0.186191 0.414223
vt 0.175414 0.456265
vt 0.216757 0.405259
vt 0.239900 0.376583
vt 0.276382 0.364034
vt 0.260492 0.326399
vt 0.291858 0.328843
vt 0.971642 0.337303
vt 0.910120 0.423814
vt 0.084440 0.293134
vt 0.724855 0.453621
vt 0.736634 0.324909
vt 0.294351 0.273461
vt 0.265389 0.286275
vt 0.263746 0.235406
vt 0.659520 0.300288
vt 0.690004 0.387072
vt 0.639429 0.323244
vt 0.395007 0.291104
vt 0.453026 0.396310
vt 0.353283 0.314854
vt 0.320849 0.309059
vt 0.693396 0.283125
vt 0.350694 0.269305
vt 0.316759 0.245703
vt 0.163049 0.180317
vt 0.271516 0.147628
vt 0.242398 0.270615
vt 0.833575 0.206482
vt 0.784373 0.162990
vt 0.320293 0.188122
vt 0.341367 0.111225
vt 0.713643 0.091390
vt 0.703213 0.044509
vt 0.242469 0.055423
vt 0.663350 0.108353
vt 0.756948 0.137721
vt 0.362847 0.049717
vt 0.481041 0.220429
vt 0.462515 0.274288
vt 0.401144 0.228631
vt 0.650185 0.166561
vt 0.622807 0.122794
vt 0.558558 0.158501
vt 0.599831 0.059197
vt 0.641692 0.003004
vt 0.197132 0.105073
vt 0.751161 0.009119
vt 0.386758 0.182094
vt 0.538105 0.108699
vt 0.079062 0.094517
vt 0.157427 0.000102
vt 0.588129 0.000102
vt 0.527635 0.210332
vt 0.575190 0.241189
vt 0.481245 0.274314
vt 0.485991 0.157222
vt 0.559454 0.275645
vt 0.511082 0.307597
vt 0.346042 0.437289
vt 0.357836 0.364534
vt 0.416150 0.465769
vt 0.506381 0.083271
vt 0.401078 0.105386
vt 0.310197 0.457653
vt 0.296294 0.385481
vt 0.231619 0.447940
vt 0.465999 0.098184
vt 0.856990 0.000102
vt 0.918848 0.059254
vt 0.854140 0.061861
vt 0.624362 0.257548
vt 0.604015 0.209364
vt 0.751830 0.277710
vt 0.134707 0.550454
vt 0.604180 0.422518
vt 0.023067 0.484693
vt 0.186585 0.521863
vt 0.257148 0.492958
vt 0.279337 0.560213
vt 0.318133 0.532805
vt 0.000102 0.262895
vt 0.034535 0.150022
vt 0.968288 0.168564
vt 0.285721 0.000102
vn -0.577400 0.577300 0.577400
vn -0.418000 0.642400 0.642400
vn -0.440200 0.634900 0.634900
vn 0.212900 0.690900 0.690900
vn 0.577300 0.577400 0.577400
vn 0.577300 0.577300 0.577400
vn -0.675700 0.294500 -0.675700
vn -0.577400 0.577300 -0.577300
vn -0.577300 0.577400 -0.577300
vn -0.501600 0.829000 0.247400
vn 0.577400 0.577400 -0.577300
vn -0.577400 0.577300 -0.577400
vn 0.577300 0.577400 -0.577400
vn 0.577300 0.577300 -0.577400
vn 0.649100 -0.396700 -0.649100
vn -0.677800 0.552200 -0.485400
vn -0.686100 -0.686100 -0.241800
vn 0.416900 0.642700 0.642700
vn -0.707100 0.707100 -0.000700
vn -0.703800 0.703800 -0.096900
vn -0.762000 -0.173200 0.624000
vn 0.577400 -0.577300 0.577300
vn 0.690500 0.215800 0.690400
vn 0.615900 0.491300 0.615900
vn 0.772700 -0.600200 0.206600
vn -0.577300 0.577400 0.577400
vn -0.619700 0.619700 0.481700
vn 0.633700 0.633700 0.443600
vn 0.577300 0.577400 0.577300
vn 0.577400 0.577400 0.577300
vn -0.700900 0.132400 0.700900
vn -0.577300 0.577400 0.577300
vn -0.639300 -0.427300 0.639300
vn -0.624400 -0.469300 0.624400
vn -0.577400 -0.577400 0.577300
vn -0.577400 -0.577300 0.577300
vn -0.705600 -0.705600 0.065900
vn -0.577300 -0.577400 -0.577300
vn -0.577400 -0.577300 -0.577300
vn -0.649900 0.650000 -0.393900
vn -0.577400 0.577300 0.577300
vn -0.577400 0.577400 0.577300
vn -0.540800 0.594800 0.594800
vn -0.577400 -0.577400 -0.577300
vn -0.636400 -0.435900 -0.636400
vn 0.690800 0.213300 0.690800
vn 0.493700 0.614900 0.614900
vn 0.622100 -0.475400 0.622100
vn 0.021400 -0.706900 -0.706900
vn 0.589400 -0.615300 -0.523500
vn -0.577300 -0.577400 -0.577400
vn -0.577400 -0.577300 -0.577400
vn -0.702300 0.116300 -0.702300
vn -0.656500 -0.371400 -0.656500
vn 0.694900 0.694900 -0.184800
vn 0.656200 0.656200 -0.372500
vn -0.108200 -0.703000 -0.703000
vn 0.577300 -0.577400 -0.577300
vn 0.577300 -0.577300 -0.577400
vn -0.308900 0.672500 -0.672500
vn 0.607100 -0.607200 -0.512600
vn 0.701100 -0.586200 -0.406000
vn 0.597200 -0.535400 -0.597200
vn 0.577400 -0.577400 -0.577300
vn 0.106900 -0.703100 -0.703100
vn 0.704100 -0.704100 0.092100
vn 0.682000 -0.682000 -0.264200
vn 0.594800 -0.594800 0.540800
vn 0.577300 -0.577400 -0.577400
vn -0.577300 0.577300 -0.577400
vn -0.001300 -0.707100 -0.707100
vn 0.704600 -0.704600 -0.084300
vn 0.247900 0.685000 -0.685000
vn 0.577400 -0.577300 0.577400
vn 0.156100 -0.698400 0.698400
vn 0.577300 -0.577300 0.577400
vn 0.187900 -0.694500 0.694500
vn -0.550800 -0.590200 0.590200
vn 0.577400 -0.577300 -0.577400
vn -0.577300 -0.577400 0.577400
vn -0.628500 -0.628600 0.458100
vn 0.695700 0.178600 -0.695700
vn 0.577400 0.577300 0.577300
vn -0.289800 -0.272700 0.917400
vn -0.432800 -0.637400 0.637400
vn -0.577300 -0.577400 0.577300
s 1
f 1/1/1 2/2/2 3/3/3
f 4/4/4 5/5/5 6/6/6
f 7/7/7 8/8/8 9/9/9
f 10/10/10 11/11/11 12/12/12
f 13/13/13 14/14/14 15/15/15
f 13/13/13 11/11/11 14/14/14
f 16/16/16 7/7/7 17/17/17
f 3/3/3 2/2/2 18/18/18
f 19/19/19 8/8/8 20/20/20
f 20/20/20 16/16/16 21/21/21
f 22/22/22 23/23/23 24/24/24
f 23/23/23 22/22/22 25/25/25
f 26/26/26 1/27/1 27/28/27
f 28/29/28 29/30/29 30/31/30
f 20/20/20 21/21/21 27/28/27
f 26/26/26 27/28/27 31/32/31
f 32/33/32 33/34/33 34/35/34
f 21/21/21 35/36/35 31/32/31
f 27/28/27 21/21/21 31/32/31
f 17/17/17 21/21/21 16/16/16
f 36/37/36 17/17/17 37/38/37
f 38/39/38 39/40/39 37/38/37
f 5/5/5 3/3/3 18/18/18
f 10/10/10 40/41/40 41/42/41
f 10/10/10 41/42/41 3/3/3
f 3/3/3 5/5/5 4/4/4
f 42/43/42 27/28/27 1/27/1
f 1/1/1 3/3/3 41/42/41
f 18/18/18 2/2/2 43/44/43
f 26/26/26 32/33/32 1/27/1
f 18/18/18 44/45/30 5/5/5
f 45/46/44 46/47/44 47/48/45
f 48/49/46 49/50/47 50/51/48
f 51/52/49 52/53/50 53/54/51
f 39/40/39 45/46/44 54/55/51
f 48/49/46 55/56/5 44/45/30
f 46/47/44 39/40/39 38/39/38
f 49/50/47 18/18/18 43/44/43
f 53/54/51 54/55/51 56/57/52
f 56/57/52 51/52/49 53/54/51
f 54/55/51 45/46/44 57/58/51
f 7/7/7 16/16/16 8/8/8
f 27/28/27 42/43/42 20/20/20
f 8/8/8 16/16/16 20/20/20
f 9/9/9 58/59/8 59/60/53
f 54/55/51 57/58/51 56/57/52
f 47/48/45 46/47/44 60/61/54
f 47/48/45 60/61/54 7/7/7
f 14/14/14 61/62/55 62/63/56
f 57/58/51 47/48/45 63/64/39
f 59/60/53 47/48/45 9/9/9
f 59/60/53 63/64/39 47/48/45
f 63/64/39 59/60/53 64/65/57
f 15/15/15 65/66/58 66/67/59
f 67/68/60 64/65/57 59/60/53
f 68/69/61 23/23/23 25/25/25
f 68/69/61 65/66/58 69/70/62
f 67/68/60 70/71/63 64/65/57
f 71/72/58 72/73/64 73/74/65
f 74/75/66 75/76/67 68/69/61
f 75/76/67 74/75/66 76/77/68
f 66/67/59 77/78/69 71/79/58
f 57/58/51 45/46/44 47/48/45
f 58/59/8 78/80/70 59/60/53
f 15/15/15 66/67/59 79/81/59
f 39/40/39 46/47/44 45/46/44
f 80/82/71 71/72/58 73/74/65
f 57/58/51 63/64/39 56/57/52
f 81/83/72 77/78/69 75/76/67
f 78/80/70 12/84/12 82/85/73
f 71/79/58 77/78/69 72/86/64
f 8/8/8 58/59/8 9/9/9
f 31/32/31 35/36/35 33/34/33
f 73/74/65 72/73/64 51/52/49
f 73/74/65 63/64/39 80/82/71
f 56/57/52 73/74/65 51/52/49
f 83/87/22 76/77/68 84/88/74
f 85/89/75 86/90/76 83/87/22
f 73/74/65 56/57/52 63/64/39
f 85/89/75 83/87/22 87/91/74
f 88/92/77 85/89/75 87/91/74
f 89/93/78 90/94/44 52/53/50
f 86/95/76 89/93/78 52/53/50
f 46/47/44 38/39/38 60/61/54
f 81/83/72 86/90/76 52/96/50
f 36/37/36 21/21/21 17/17/17
f 53/54/51 52/53/50 90/94/44
f 64/65/57 70/71/63 91/97/79
f 69/70/62 65/66/58 15/15/15
f 89/93/78 92/98/80 93/99/81
f 92/98/80 94/100/35 93/99/81
f 91/97/79 80/82/71 64/65/57
f 80/82/71 79/101/59 71/72/58
f 53/54/51 90/94/44 54/55/51
f 93/99/81 39/40/39 54/55/51
f 38/39/38 37/38/37 17/17/17
f 91/97/79 70/71/63 79/101/59
f 35/36/35 21/21/21 36/37/36
f 36/37/36 93/99/81 35/36/35
f 17/17/17 60/61/54 38/39/38
f 94/100/35 33/34/33 35/36/35
f 26/26/26 33/34/33 32/33/32
f 94/100/35 34/35/34 33/34/33
f 88/92/77 87/91/74 50/51/48
f 70/102/63 95/103/11 96/104/82
f 96/104/82 15/15/15 79/81/59
f 97/105/22 87/91/74 84/88/74
f 79/81/59 70/102/63 96/104/82
f 97/105/22 84/88/74 98/106/76
f 97/105/22 55/56/5 48/49/46
f 48/49/46 50/51/48 97/105/22
f 97/105/22 50/51/48 87/91/74
f 44/45/30 55/56/5 99/107/83
f 1/1/1 43/44/43 2/2/2
f 34/35/34 100/108/84 32/33/32
f 100/109/84 88/92/77 50/51/48
f 43/110/43 32/33/32 100/108/84
f 100/108/84 34/35/34 101/111/85
f 43/44/43 100/109/84 49/50/47
f 26/26/26 31/32/31 33/34/33
f 102/112/86 88/113/77 101/111/85
f 85/114/75 88/113/77 102/112/86
f 87/91/74 83/87/22 84/88/74
f 34/35/34 94/100/35 102/112/86
f 102/112/86 101/111/85 34/35/34
f 100/108/84 101/111/85 88/113/77
f 92/98/80 102/112/86 94/100/35
f 1/27/1 32/33/32 43/110/43
f 5/5/5 29/30/29 6/6/6
f 1/27/1 41/115/41 42/43/42
f 41/115/41 19/19/19 42/43/42
f 7/7/7 60/61/54 17/17/17
f 19/19/19 20/20/20 42/43/42
f 41/115/41 40/116/40 19/19/19
f 40/116/40 58/59/8 19/19/19
f 58/59/8 40/116/40 12/84/12
f 8/8/8 19/19/19 58/59/8
f 78/80/70 58/59/8 12/84/12
f 12/12/12 11/11/11 82/117/73
f 6/6/6 10/10/10 4/4/4
f 40/41/40 10/10/10 12/12/12
f 11/11/11 13/13/13 82/117/73
f 10/10/10 3/3/3 4/4/4
f 95/118/11 67/68/60 82/85/73
f 82/117/73 13/13/13 95/103/11
f 95/103/11 13/13/13 96/104/82
f 7/7/7 9/9/9 47/48/45
f 67/68/60 78/80/70 82/85/73
f 59/60/53 78/80/70 67/68/60
f 70/71/63 67/68/60 95/118/11
f 80/82/71 63/64/39 64/65/57
f 13/13/13 15/15/15 96/104/82
f 91/97/79 79/101/59 80/82/71
f 93/99/81 94/100/35 35/36/35
f 37/38/37 93/99/81 36/37/36
f 37/38/37 39/40/39 93/99/81
f 54/55/51 90/94/44 93/99/81
f 90/94/44 89/93/78 93/99/81
f 85/114/75 102/112/86 92/98/80
f 89/93/78 85/114/75 92/98/80
f 86/95/76 85/114/75 89/93/78
f 76/77/68 98/106/76 84/88/74
f 76/77/68 86/90/76 81/83/72
f 86/90/76 76/77/68 83/87/22
f 72/86/64 77/78/69 52/96/50
f 77/78/69 81/83/72 52/96/50
f 51/52/49 72/73/64 52/53/50
f 66/67/59 71/79/58 79/81/59
f 66/67/59 68/69/61 77/78/69
f 68/69/61 66/67/59 65/66/58
f 75/76/67 77/78/69 68/69/61
f 81/83/72 75/76/67 76/77/68
f 76/77/68 74/75/66 98/106/76
f 98/106/76 22/22/22 97/105/22
f 22/22/22 98/106/76 74/75/66
f 68/69/61 69/70/62 23/23/23
f 15/15/15 62/63/56 69/70/62
f 15/15/15 14/14/14 62/63/56
f 61/62/55 14/14/14 11/11/11
f 24/24/24 55/56/5 97/105/22
f 22/22/22 24/24/24 97/105/22
f 24/24/24 23/23/23 99/107/83
f 25/25/25 74/75/66 68/69/61
f 30/31/30 29/30/29 99/107/83
f 23/23/23 69/70/62 62/63/56
f 30/31/30 23/23/23 62/63/56
f 30/31/30 99/107/83 23/23/23
f 55/56/5 24/24/24 99/107/83
f 49/50/47 44/45/30 18/18/18
f 50/51/48 49/50/47 100/109/84
f 48/49/46 44/45/30 49/50/47
f 6/6/6 11/11/11 10/10/10
f 30/31/30 61/62/55 28/29/28
f 6/6/6 29/30/29 28/29/28
f 11/11/11 28/29/28 61/62/55
f 11/11/11 6/6/6 28/29/28
f 25/25/25 22/22/22 74/75/66
f 5/5/5 44/45/30 99/107/83
f 29/30/29 5/5/5 99/107/83
f 30/31/30 62/63/56 61/62/55
